<svg data-v-423bf9ae="" xmlns="http://www.w3.org/2000/svg" viewBox="0 0 189.1201307545628 181" class="iconAboveSlogan"><!----><!----><!----><g data-v-423bf9ae="" id="3cdd2c17-a408-438f-a453-1d7986d5022e" fill="white" transform="matrix(4.184145927429199,0,0,4.184145927429199,-3.2198283672332764,89.82647705078125)"><path d="M8.16 6.11L8.16 6.11L8.16 6.11Q8.16 6.92 7.72 7.49L7.72 7.49L7.72 7.49Q7.29 8.05 6.55 8.37L6.55 8.37L6.55 8.45L6.55 8.45Q7.58 8.76 8.17 9.42L8.17 9.42L8.17 9.42Q8.75 10.08 8.75 11.02L8.75 11.02L8.75 11.02Q8.75 12.34 7.79 13.08L7.79 13.08L7.79 13.08Q6.82 13.82 5.02 13.82L5.02 13.82L0.77 13.82L0.77 13.54L2.03 13.05L2.03 4.51L0.77 4.02L0.77 3.74L4.54 3.74L4.54 3.74Q6.45 3.74 7.31 4.35L7.31 4.35L7.31 4.35Q8.16 4.97 8.16 6.11ZM5.21 8.84L3.36 8.84L3.36 13.10L5.21 13.10L5.21 13.10Q5.89 13.10 6.37 12.78L6.37 12.78L6.37 12.78Q6.86 12.46 7.09 11.99L7.09 11.99L7.09 11.99Q7.31 11.53 7.31 10.99L7.31 10.99L7.31 10.99Q7.31 10.60 7.17 10.22L7.17 10.22L7.17 10.22Q7.03 9.84 6.78 9.53L6.78 9.53L6.78 9.53Q6.53 9.22 6.12 9.03L6.12 9.03L6.12 9.03Q5.71 8.84 5.21 8.84L5.21 8.84ZM3.36 4.47L3.36 8.11L4.89 8.11L4.89 8.11Q5.80 8.11 6.28 7.57L6.28 7.57L6.28 7.57Q6.75 7.03 6.75 6.22L6.75 6.22L6.75 6.22Q6.75 5.38 6.28 4.93L6.28 4.93L6.28 4.93Q5.81 4.47 4.73 4.47L4.73 4.47L3.36 4.47ZM13.22 6.65L13.22 6.65L13.22 6.65Q14 6.65 14.62 6.92L14.62 6.92L14.62 6.92Q15.24 7.18 15.67 7.67L15.67 7.67L15.67 7.67Q16.11 8.15 16.33 8.83L16.33 8.83L16.33 8.83Q16.56 9.50 16.56 10.32L16.56 10.32L16.56 10.32Q16.56 11.14 16.34 11.81L16.34 11.81L16.34 11.81Q16.11 12.49 15.68 12.97L15.68 12.97L15.68 12.97Q15.25 13.46 14.63 13.73L14.63 13.73L14.63 13.73Q14.01 13.99 13.22 13.99L13.22 13.99L13.22 13.99Q12.43 13.99 11.81 13.73L11.81 13.73L11.81 13.73Q11.18 13.46 10.75 12.97L10.75 12.97L10.75 12.97Q10.32 12.49 10.10 11.82L10.10 11.82L10.10 11.82Q9.87 11.14 9.87 10.32L9.87 10.32L9.87 10.32Q9.87 9.50 10.10 8.83L10.10 8.83L10.10 8.83Q10.33 8.15 10.76 7.67L10.76 7.67L10.76 7.67Q11.19 7.18 11.81 6.92L11.81 6.92L11.81 6.92Q12.43 6.65 13.22 6.65ZM11.73 8.10L11.73 8.10L11.73 8.10Q11.20 8.96 11.20 10.32L11.20 10.32L11.20 10.32Q11.20 11.00 11.34 11.56L11.34 11.56L11.34 11.56Q11.47 12.13 11.73 12.53L11.73 12.53L11.73 12.53Q11.98 12.94 12.36 13.17L12.36 13.17L12.36 13.17Q12.74 13.39 13.22 13.39L13.22 13.39L13.22 13.39Q13.71 13.39 14.09 13.17L14.09 13.17L14.09 13.17Q14.47 12.94 14.73 12.53L14.73 12.53L14.73 12.53Q15.00 12.13 15.14 11.56L15.14 11.56L15.14 11.56Q15.28 11.00 15.28 10.32L15.28 10.32L15.28 10.32Q15.28 9.65 15.14 9.09L15.14 9.09L15.14 9.09Q15.00 8.52 14.73 8.12L14.73 8.12L14.73 8.12Q14.47 7.71 14.09 7.48L14.09 7.48L14.09 7.48Q13.71 7.25 13.22 7.25L13.22 7.25L13.22 7.25Q12.25 7.25 11.73 8.10ZM21.17 6.65L21.17 6.65L21.17 6.65Q21.95 6.65 22.57 6.92L22.57 6.92L22.57 6.92Q23.19 7.18 23.63 7.67L23.63 7.67L23.63 7.67Q24.06 8.15 24.28 8.83L24.28 8.83L24.28 8.83Q24.51 9.50 24.51 10.32L24.51 10.32L24.51 10.32Q24.51 11.14 24.29 11.81L24.29 11.81L24.29 11.81Q24.06 12.49 23.63 12.97L23.63 12.97L23.63 12.97Q23.20 13.46 22.58 13.73L22.58 13.73L22.58 13.73Q21.96 13.99 21.17 13.99L21.17 13.99L21.17 13.99Q20.38 13.99 19.76 13.73L19.76 13.73L19.76 13.73Q19.13 13.46 18.70 12.97L18.70 12.97L18.70 12.97Q18.27 12.49 18.05 11.82L18.05 11.82L18.05 11.82Q17.82 11.14 17.82 10.32L17.82 10.32L17.82 10.32Q17.82 9.50 18.05 8.83L18.05 8.83L18.05 8.83Q18.28 8.15 18.71 7.67L18.71 7.67L18.71 7.67Q19.14 7.18 19.76 6.92L19.76 6.92L19.76 6.92Q20.38 6.65 21.17 6.65ZM19.68 8.10L19.68 8.10L19.68 8.10Q19.15 8.96 19.15 10.32L19.15 10.32L19.15 10.32Q19.15 11.00 19.29 11.56L19.29 11.56L19.29 11.56Q19.42 12.13 19.68 12.53L19.68 12.53L19.68 12.53Q19.93 12.94 20.31 13.17L20.31 13.17L20.31 13.17Q20.69 13.39 21.17 13.39L21.17 13.39L21.17 13.39Q21.66 13.39 22.04 13.17L22.04 13.17L22.04 13.17Q22.42 12.94 22.69 12.53L22.69 12.53L22.69 12.53Q22.95 12.13 23.09 11.56L23.09 11.56L23.09 11.56Q23.23 11.00 23.23 10.32L23.23 10.32L23.23 10.32Q23.23 9.65 23.09 9.09L23.09 9.09L23.09 9.09Q22.95 8.52 22.69 8.12L22.69 8.12L22.69 8.12Q22.42 7.71 22.04 7.48L22.04 7.48L22.04 7.48Q21.66 7.25 21.17 7.25L21.17 7.25L21.17 7.25Q20.20 7.25 19.68 8.10ZM28.08 13.05L29.20 13.54L29.20 13.82L25.56 13.82L25.56 13.54L26.82 13.05L26.82 4.42L25.56 3.92L25.56 3.64L27.95 3.15L28.08 3.29L28.08 10.00L28.70 9.86L30.74 7.45L29.85 7.10L29.85 6.82L32.83 6.82L32.83 7.10L31.65 7.57L29.65 9.92L32.03 13.06L32.03 13.05L33.22 13.54L33.22 13.82L31.14 13.82L28.57 10.52L28.08 10.52L28.08 13.05ZM36.23 13.05L37.49 13.54L37.49 13.82L33.71 13.82L33.71 13.54L34.97 13.05L34.97 4.42L33.71 3.92L33.71 3.64L36.09 3.15L36.23 3.29L36.23 13.05ZM39.03 7.59L37.77 7.10L37.77 6.82L41.39 6.82L41.39 7.10L40.33 7.52L42.35 12.10L44.00 7.49L42.99 7.10L42.99 6.82L45.97 6.82L45.97 7.10L44.71 7.59L42.47 13.82L40.93 17.49L39.77 17.28L39.64 17.00L41.82 13.58L39.03 7.55L39.03 7.59Z"></path></g><!----><g data-v-423bf9ae="" id="49ae3344-0029-4070-81d9-f6c832c5e973" transform="matrix(1.95652174949646,0,0,1.95652174949646,47.719261169433594,-1.956521987915039)" stroke="none" fill="white"><g stroke-width="2" stroke-linecap="round" stroke-linejoin="round" stroke-miterlimit="10"><path d="M38.39 47H9.921c-3.985 0-7.244-2.889-7.244-6.417 0-3.529 3.259-6.418 7.244-6.418H38.39M8.147 38.425H36.36M8.147 42.739H36.36M9.61 29.914h28.468c3.985 0 7.245-2.889 7.245-6.417 0-3.53-3.26-6.418-7.245-6.418H9.61M39.854 21.55H11.639M39.854 25.445H11.639M16.102 12.508h21.525c3.014 0 5.478-2.591 5.478-5.756C43.104 3.589 40.641 1 37.627 1H16.102"></path><g><path d="M38.969 4.841H17.635M38.969 8.667H17.635"></path></g></g></g><!----><g data-v-423bf9ae="" id="99beb4bd-4c96-49e6-9221-189fb52d26e3" fill="white" transform="matrix(0.5613868832588196,0,0,0.5613868832588196,24.60251808166504,204.5115966796875)"><path d="M1.19 13.78L2.03 13.78L2.03 9.24L6.37 9.24L6.37 13.78L7.21 13.78L7.21 4.54L6.37 4.54L6.37 8.53L2.03 8.53L2.03 4.54L1.19 4.54ZM19.60 13.94C21.63 13.94 23.07 12.07 23.07 9.11C23.07 6.20 21.63 4.37 19.60 4.37C17.57 4.37 16.13 6.19 16.13 9.11C16.13 12.07 17.57 13.94 19.60 13.94ZM19.60 13.20C18.03 13.20 16.98 11.59 16.98 9.11C16.98 6.65 18.03 5.11 19.60 5.11C21.17 5.11 22.22 6.65 22.22 9.11C22.22 11.59 21.17 13.20 19.60 13.20ZM35 13.94C37.03 13.94 38.47 12.07 38.47 9.11C38.47 6.20 37.03 4.37 35 4.37C32.97 4.37 31.53 6.19 31.53 9.11C31.53 12.07 32.97 13.94 35 13.94ZM35 13.20C33.43 13.20 32.38 11.59 32.38 9.11C32.38 6.65 33.43 5.11 35 5.11C36.57 5.11 37.62 6.65 37.62 9.11C37.62 11.59 36.57 13.20 35 13.20ZM47.73 13.78L48.57 13.78L48.57 10.67L50.36 8.62L53.30 13.78L54.22 13.78L50.90 7.98L53.87 4.54L52.91 4.54L48.61 9.48L48.57 9.48L48.57 4.54L47.73 4.54ZM63.32 13.78L69.01 13.78L69.01 13.06L64.16 13.06L64.16 9.25L68.12 9.25L68.12 8.53L64.16 8.53L64.16 5.24L68.87 5.24L68.87 4.54L63.32 4.54ZM78.30 13.78L80.49 13.78C83.27 13.78 84.64 11.97 84.64 9.11C84.64 6.27 83.27 4.54 80.44 4.54L78.30 4.54ZM79.11 13.09L79.11 5.22L80.39 5.22C82.73 5.22 83.79 6.75 83.79 9.11C83.79 11.49 82.73 13.09 80.39 13.09ZM109.47 13.78L110.40 13.78L111.58 9.55C111.73 9.02 111.86 8.46 111.99 7.91L112.03 7.91C112.15 8.46 112.27 9.02 112.39 9.55L113.62 13.78L114.59 13.78L116.03 4.52L115.25 4.52L114.38 10.65C114.32 11.40 114.20 12.17 114.14 12.91L114.09 12.91C113.86 12.17 113.65 11.38 113.47 10.65L112.36 6.93L111.71 6.93L110.61 10.65C110.42 11.40 110.19 12.17 109.98 12.91L109.94 12.91C109.87 12.17 109.75 11.41 109.69 10.65L108.78 4.52L107.97 4.52ZM124.64 13.78L130.16 13.78L130.16 13.06L127.82 13.06L127.82 5.24L130.16 5.24L130.16 4.54L124.64 4.54L124.64 5.24L126.98 5.24L126.98 13.06L124.64 13.06ZM142.38 13.78L143.22 13.78L143.22 5.24L146.36 5.24L146.36 4.54L139.24 4.54L139.24 5.24L142.38 5.24ZM155.19 13.78L156.03 13.78L156.03 9.24L160.37 9.24L160.37 13.78L161.21 13.78L161.21 4.54L160.37 4.54L160.37 8.53L156.03 8.53L156.03 4.54L155.19 4.54ZM186.34 13.78L188.93 13.78C191.00 13.78 192.37 12.88 192.37 11.07C192.37 9.80 191.55 9.04 190.19 8.85L190.19 8.79C191.27 8.53 191.81 7.71 191.81 6.78C191.81 5.21 190.61 4.54 188.73 4.54L186.34 4.54ZM187.19 8.57L187.19 5.21L188.58 5.21C190.16 5.21 190.99 5.68 190.99 6.80C190.99 7.94 190.29 8.57 188.51 8.57ZM187.19 13.10L187.19 9.21L188.76 9.21C190.54 9.21 191.55 9.79 191.55 11.06C191.55 12.47 190.50 13.10 188.76 13.10ZM204.40 13.94C206.43 13.94 207.87 12.07 207.87 9.11C207.87 6.20 206.43 4.37 204.40 4.37C202.37 4.37 200.93 6.19 200.93 9.11C200.93 12.07 202.37 13.94 204.40 13.94ZM204.40 13.20C202.83 13.20 201.78 11.59 201.78 9.11C201.78 6.65 202.83 5.11 204.40 5.11C205.97 5.11 207.02 6.65 207.02 9.11C207.02 11.59 205.97 13.20 204.40 13.20ZM219.80 13.94C221.83 13.94 223.27 12.07 223.27 9.11C223.27 6.20 221.83 4.37 219.80 4.37C217.77 4.37 216.33 6.19 216.33 9.11C216.33 12.07 217.77 13.94 219.80 13.94ZM219.80 13.20C218.23 13.20 217.18 11.59 217.18 9.11C217.18 6.65 218.23 5.11 219.80 5.11C221.37 5.11 222.42 6.65 222.42 9.11C222.42 11.59 221.37 13.20 219.80 13.20ZM232.53 13.78L233.37 13.78L233.37 10.67L235.16 8.62L238.10 13.78L239.02 13.78L235.70 7.98L238.67 4.54L237.71 4.54L233.41 9.48L233.37 9.48L233.37 4.54L232.53 4.54ZM250.71 13.94C252.63 13.94 253.85 12.84 253.85 11.40C253.85 10.00 252.88 9.45 251.79 8.95L250.43 8.36C249.69 8.02 248.74 7.64 248.74 6.65C248.74 5.70 249.55 5.11 250.77 5.11C251.73 5.11 252.48 5.47 253.06 6.02L253.53 5.47C252.91 4.84 251.93 4.37 250.77 4.37C249.10 4.37 247.88 5.33 247.88 6.71C247.88 8.05 249.00 8.68 249.89 9.04L251.26 9.63C252.22 10.07 253.01 10.37 253.01 11.47C253.01 12.50 252.14 13.20 250.71 13.20C249.62 13.20 248.63 12.71 247.94 11.97L247.42 12.56C248.19 13.38 249.33 13.94 250.71 13.94Z"></path></g></svg>