<svg data-v-fde0c5aa="" xmlns="http://www.w3.org/2000/svg" viewBox="0 0 300 300" class="font"><!----><defs data-v-fde0c5aa=""><!----></defs><rect data-v-fde0c5aa="" fill="#ffffff" x="0" y="0" width="300px" height="300px" class="logo-background-square"></rect><defs data-v-fde0c5aa=""><!----></defs><g data-v-fde0c5aa="" id="703b6834-72ea-49be-b817-1802b33eb571" fill="#1F1E1A" transform="matrix(4.867340564727783,0,0,4.867340564727783,36.25442917638925,99.77702877884366)"><path d="M8.16 6.11L8.16 6.11L8.16 6.11Q8.16 6.92 7.72 7.49L7.72 7.49L7.72 7.49Q7.29 8.05 6.55 8.37L6.55 8.37L6.55 8.45L6.55 8.45Q7.58 8.76 8.17 9.42L8.17 9.42L8.17 9.42Q8.75 10.08 8.75 11.02L8.75 11.02L8.75 11.02Q8.75 12.34 7.79 13.08L7.79 13.08L7.79 13.08Q6.82 13.82 5.02 13.82L5.02 13.82L0.77 13.82L0.77 13.54L2.03 13.05L2.03 4.51L0.77 4.02L0.77 3.74L4.54 3.74L4.54 3.74Q6.45 3.74 7.31 4.35L7.31 4.35L7.31 4.35Q8.16 4.97 8.16 6.11ZM5.21 8.84L3.36 8.84L3.36 13.10L5.21 13.10L5.21 13.10Q5.89 13.10 6.37 12.78L6.37 12.78L6.37 12.78Q6.86 12.46 7.09 11.99L7.09 11.99L7.09 11.99Q7.31 11.53 7.31 10.99L7.31 10.99L7.31 10.99Q7.31 10.60 7.17 10.22L7.17 10.22L7.17 10.22Q7.03 9.84 6.78 9.53L6.78 9.53L6.78 9.53Q6.53 9.22 6.12 9.03L6.12 9.03L6.12 9.03Q5.71 8.84 5.21 8.84L5.21 8.84ZM3.36 4.47L3.36 8.11L4.89 8.11L4.89 8.11Q5.80 8.11 6.28 7.57L6.28 7.57L6.28 7.57Q6.75 7.03 6.75 6.22L6.75 6.22L6.75 6.22Q6.75 5.38 6.28 4.93L6.28 4.93L6.28 4.93Q5.81 4.47 4.73 4.47L4.73 4.47L3.36 4.47ZM13.22 6.65L13.22 6.65L13.22 6.65Q14 6.65 14.62 6.92L14.62 6.92L14.62 6.92Q15.24 7.18 15.67 7.67L15.67 7.67L15.67 7.67Q16.11 8.15 16.33 8.83L16.33 8.83L16.33 8.83Q16.56 9.50 16.56 10.32L16.56 10.32L16.56 10.32Q16.56 11.14 16.34 11.81L16.34 11.81L16.34 11.81Q16.11 12.49 15.68 12.97L15.68 12.97L15.68 12.97Q15.25 13.46 14.63 13.73L14.63 13.73L14.63 13.73Q14.01 13.99 13.22 13.99L13.22 13.99L13.22 13.99Q12.43 13.99 11.81 13.73L11.81 13.73L11.81 13.73Q11.18 13.46 10.75 12.97L10.75 12.97L10.75 12.97Q10.32 12.49 10.10 11.82L10.10 11.82L10.10 11.82Q9.87 11.14 9.87 10.32L9.87 10.32L9.87 10.32Q9.87 9.50 10.10 8.83L10.10 8.83L10.10 8.83Q10.33 8.15 10.76 7.67L10.76 7.67L10.76 7.67Q11.19 7.18 11.81 6.92L11.81 6.92L11.81 6.92Q12.43 6.65 13.22 6.65ZM11.73 8.10L11.73 8.10L11.73 8.10Q11.20 8.96 11.20 10.32L11.20 10.32L11.20 10.32Q11.20 11.00 11.34 11.56L11.34 11.56L11.34 11.56Q11.47 12.13 11.73 12.53L11.73 12.53L11.73 12.53Q11.98 12.94 12.36 13.17L12.36 13.17L12.36 13.17Q12.74 13.39 13.22 13.39L13.22 13.39L13.22 13.39Q13.71 13.39 14.09 13.17L14.09 13.17L14.09 13.17Q14.47 12.94 14.73 12.53L14.73 12.53L14.73 12.53Q15.00 12.13 15.14 11.56L15.14 11.56L15.14 11.56Q15.28 11.00 15.28 10.32L15.28 10.32L15.28 10.32Q15.28 9.65 15.14 9.09L15.14 9.09L15.14 9.09Q15.00 8.52 14.73 8.12L14.73 8.12L14.73 8.12Q14.47 7.71 14.09 7.48L14.09 7.48L14.09 7.48Q13.71 7.25 13.22 7.25L13.22 7.25L13.22 7.25Q12.25 7.25 11.73 8.10ZM21.17 6.65L21.17 6.65L21.17 6.65Q21.95 6.65 22.57 6.92L22.57 6.92L22.57 6.92Q23.19 7.18 23.63 7.67L23.63 7.67L23.63 7.67Q24.06 8.15 24.28 8.83L24.28 8.83L24.28 8.83Q24.51 9.50 24.51 10.32L24.51 10.32L24.51 10.32Q24.51 11.14 24.29 11.81L24.29 11.81L24.29 11.81Q24.06 12.49 23.63 12.97L23.63 12.97L23.63 12.97Q23.20 13.46 22.58 13.73L22.58 13.73L22.58 13.73Q21.96 13.99 21.17 13.99L21.17 13.99L21.17 13.99Q20.38 13.99 19.76 13.73L19.76 13.73L19.76 13.73Q19.13 13.46 18.70 12.97L18.70 12.97L18.70 12.97Q18.27 12.49 18.05 11.82L18.05 11.82L18.05 11.82Q17.82 11.14 17.82 10.32L17.82 10.32L17.82 10.32Q17.82 9.50 18.05 8.83L18.05 8.83L18.05 8.83Q18.28 8.15 18.71 7.67L18.71 7.67L18.71 7.67Q19.14 7.18 19.76 6.92L19.76 6.92L19.76 6.92Q20.38 6.65 21.17 6.65ZM19.68 8.10L19.68 8.10L19.68 8.10Q19.15 8.96 19.15 10.32L19.15 10.32L19.15 10.32Q19.15 11.00 19.29 11.56L19.29 11.56L19.29 11.56Q19.42 12.13 19.68 12.53L19.68 12.53L19.68 12.53Q19.93 12.94 20.31 13.17L20.31 13.17L20.31 13.17Q20.69 13.39 21.17 13.39L21.17 13.39L21.17 13.39Q21.66 13.39 22.04 13.17L22.04 13.17L22.04 13.17Q22.42 12.94 22.69 12.53L22.69 12.53L22.69 12.53Q22.95 12.13 23.09 11.56L23.09 11.56L23.09 11.56Q23.23 11.00 23.23 10.32L23.23 10.32L23.23 10.32Q23.23 9.65 23.09 9.09L23.09 9.09L23.09 9.09Q22.95 8.52 22.69 8.12L22.69 8.12L22.69 8.12Q22.42 7.71 22.04 7.48L22.04 7.48L22.04 7.48Q21.66 7.25 21.17 7.25L21.17 7.25L21.17 7.25Q20.20 7.25 19.68 8.10ZM28.08 13.05L29.20 13.54L29.20 13.82L25.56 13.82L25.56 13.54L26.82 13.05L26.82 4.42L25.56 3.92L25.56 3.64L27.95 3.15L28.08 3.29L28.08 10.00L28.70 9.86L30.74 7.45L29.85 7.10L29.85 6.82L32.83 6.82L32.83 7.10L31.65 7.57L29.65 9.92L32.03 13.06L32.03 13.05L33.22 13.54L33.22 13.82L31.14 13.82L28.57 10.52L28.08 10.52L28.08 13.05ZM36.23 13.05L37.49 13.54L37.49 13.82L33.71 13.82L33.71 13.54L34.97 13.05L34.97 4.42L33.71 3.92L33.71 3.64L36.09 3.15L36.23 3.29L36.23 13.05ZM39.03 7.59L37.77 7.10L37.77 6.82L41.39 6.82L41.39 7.10L40.33 7.52L42.35 12.10L44.00 7.49L42.99 7.10L42.99 6.82L45.97 6.82L45.97 7.10L44.71 7.59L42.47 13.82L40.93 17.49L39.77 17.28L39.64 17.00L41.82 13.58L39.03 7.55L39.03 7.59Z"></path></g><!----><!----></svg>