<?xml version="1.0" encoding="utf-8"?>
<!-- Generator: Adobe Illustrator 25.1.0, SVG Export Plug-In . SVG Version: 6.00 Build 0)  -->
<svg version="1.1" id="Ebene_1" xmlns="http://www.w3.org/2000/svg" xmlns:xlink="http://www.w3.org/1999/xlink" x="0px" y="0px"
	 viewBox="0 0 300 300" style="enable-background:new 0 0 300 300;" xml:space="preserve">
<style type="text/css">
	.st0{fill:#1F1E1A;}
	.st1{fill:none;stroke:#A64709;stroke-width:4.4616;stroke-linecap:round;stroke-linejoin:round;stroke-miterlimit:22.3078;}
</style>
<g id="_x33_1e1ad4e-2f96-44ff-bd7e-47273674a375" transform="matrix(5.720991134643555,0,0,5.720991134643555,16.30535007489955,142.60366297174676)">
	<path class="st0" d="M10.7-0.9L10.7-0.9L10.7-0.9c0,0.4-0.1,0.7-0.4,1l0,0l0,0c-0.2,0.3-0.6,0.5-1,0.6l0,0v0.1l0,0
		c0.6,0.1,1,0.4,1.3,0.7l0,0l0,0c0.3,0.3,0.5,0.7,0.5,1.1l0,0l0,0c0,0.6-0.3,1.1-0.8,1.5l0,0l0,0C9.8,4.5,9.1,4.6,8.1,4.6l0,0H4.5
		V4.4l1-0.3V-2l-1-0.3v-0.2h3.1l0,0c1.1,0,1.8,0.1,2.3,0.4l0,0l0,0C10.4-1.8,10.7-1.4,10.7-0.9z M8.2,1.1H6.7v3h1.5l0,0
		c0.4,0,0.7-0.1,1-0.2l0,0l0,0c0.3-0.2,0.5-0.3,0.6-0.6l0,0l0,0C9.9,3.1,10,2.9,10,2.6l0,0l0,0c0-0.2,0-0.4-0.1-0.5l0,0l0,0
		C9.8,1.9,9.7,1.7,9.5,1.6l0,0l0,0C9.4,1.4,9.2,1.3,9,1.2l0,0l0,0C8.7,1.1,8.5,1.1,8.2,1.1L8.2,1.1z M6.7-2v2.6H8l0,0
		c0.5,0,0.9-0.1,1.2-0.4l0,0l0,0c0.3-0.3,0.4-0.6,0.4-1l0,0l0,0c0-0.4-0.1-0.7-0.4-0.9l0,0l0,0C8.8-1.9,8.4-2,7.8-2l0,0H6.7z
		 M14.9-0.5L14.9-0.5L14.9-0.5c0.4,0,0.8,0.1,1.2,0.2l0,0l0,0c0.3,0.1,0.6,0.3,0.9,0.5l0,0l0,0c0.2,0.2,0.4,0.5,0.5,0.8l0,0l0,0
		c0.1,0.3,0.2,0.7,0.2,1.1l0,0l0,0c0,0.4-0.1,0.7-0.2,1.1l0,0l0,0c-0.1,0.3-0.3,0.6-0.5,0.8l0,0l0,0c-0.2,0.2-0.5,0.4-0.9,0.5l0,0
		l0,0c-0.3,0.1-0.7,0.2-1.2,0.2l0,0l0,0c-0.4,0-0.8-0.1-1.2-0.2l0,0l0,0c-0.3-0.1-0.6-0.3-0.9-0.5l0,0l0,0c-0.2-0.2-0.4-0.5-0.5-0.8
		l0,0l0,0c-0.1-0.3-0.2-0.7-0.2-1.1l0,0l0,0c0-0.4,0.1-0.7,0.2-1.1l0,0l0,0c0.1-0.3,0.3-0.6,0.5-0.8l0,0l0,0
		c0.2-0.2,0.5-0.4,0.9-0.5l0,0l0,0C14-0.4,14.4-0.5,14.9-0.5z M13.6,0.6L13.6,0.6L13.6,0.6c-0.3,0.4-0.4,0.9-0.4,1.6l0,0l0,0
		c0,0.3,0,0.6,0.1,0.9l0,0l0,0c0.1,0.3,0.2,0.5,0.3,0.7l0,0l0,0c0.1,0.2,0.3,0.3,0.5,0.5l0,0l0,0c0.2,0.1,0.4,0.2,0.7,0.2l0,0l0,0
		c0.3,0,0.5-0.1,0.7-0.2l0,0l0,0c0.2-0.1,0.4-0.3,0.5-0.5l0,0l0,0c0.1-0.2,0.3-0.4,0.3-0.7l0,0l0,0c0.1-0.3,0.1-0.6,0.1-0.9l0,0l0,0
		c0-0.3,0-0.6-0.1-0.9l0,0l0,0c-0.1-0.3-0.2-0.5-0.3-0.7l0,0l0,0c-0.1-0.2-0.3-0.3-0.5-0.5l0,0l0,0C15.4,0,15.1,0,14.9,0l0,0l0,0
		C14.3,0,13.9,0.2,13.6,0.6z M21.5-0.5L21.5-0.5L21.5-0.5c0.4,0,0.8,0.1,1.2,0.2l0,0l0,0C23-0.2,23.3,0,23.5,0.3l0,0l0,0
		c0.2,0.2,0.4,0.5,0.5,0.8l0,0l0,0c0.1,0.3,0.2,0.7,0.2,1.1l0,0l0,0c0,0.4-0.1,0.7-0.2,1.1l0,0l0,0c-0.1,0.3-0.3,0.6-0.5,0.8l0,0
		l0,0c-0.2,0.2-0.5,0.4-0.9,0.5l0,0l0,0c-0.3,0.1-0.7,0.2-1.2,0.2l0,0l0,0c-0.4,0-0.8-0.1-1.2-0.2l0,0l0,0c-0.3-0.1-0.6-0.3-0.9-0.5
		l0,0l0,0c-0.2-0.2-0.4-0.5-0.5-0.8l0,0l0,0c-0.1-0.3-0.2-0.7-0.2-1.1l0,0l0,0c0-0.4,0.1-0.7,0.2-1.1l0,0l0,0
		c0.1-0.3,0.3-0.6,0.5-0.8l0,0l0,0c0.2-0.2,0.5-0.4,0.9-0.5l0,0l0,0C20.6-0.4,21-0.5,21.5-0.5z M20.2,0.6L20.2,0.6L20.2,0.6
		c-0.3,0.4-0.4,0.9-0.4,1.6l0,0l0,0c0,0.3,0,0.6,0.1,0.9l0,0l0,0c0.1,0.3,0.2,0.5,0.3,0.7l0,0l0,0c0.1,0.2,0.3,0.3,0.5,0.5l0,0l0,0
		c0.2,0.1,0.4,0.2,0.7,0.2l0,0l0,0c0.3,0,0.5-0.1,0.7-0.2l0,0l0,0c0.2-0.1,0.4-0.3,0.5-0.5l0,0l0,0C22.9,3.5,23,3.3,23.1,3l0,0l0,0
		c0.1-0.3,0.1-0.6,0.1-0.9l0,0l0,0c0-0.3,0-0.6-0.1-0.9l0,0l0,0C23,1,22.9,0.8,22.7,0.6l0,0l0,0c-0.1-0.2-0.3-0.3-0.5-0.5l0,0l0,0
		C22,0,21.7,0,21.5,0l0,0l0,0C20.9,0,20.5,0.2,20.2,0.6z M27.2,4.1l0.9,0.3v0.2h-3V4.4l1-0.3v-6.2l-1-0.4v-0.2l2-0.3l0.1,0.1v4.8
		l0.5-0.1l1.7-1.7l-0.7-0.2v-0.2h2.5v0.2l-1,0.3l-1.7,1.7l2,2.2v0l1,0.3v0.2h-1.7l-2.1-2.4h-0.4V4.1z M34,4.1l1,0.3v0.2h-3.1V4.4
		l1-0.3v-6.2l-1-0.4v-0.2l2-0.3L34-2.9V4.1z M36.3,0.2l-1-0.3v-0.2h3v0.2l-0.9,0.3L39,3.4l1.4-3.3l-0.8-0.3v-0.2H42v0.2l-1,0.3
		l-1.9,4.4l-1.3,2.6l-1-0.1l-0.1-0.2l1.8-2.4L36.3,0.2L36.3,0.2z"/>
</g>
<g id="a278e859-bef7-4b84-866a-c36ea4725cc5" transform="matrix(2.2307791709899902,0,0,2.2307791709899902,96.46129748856433,37.76922072869019)">
	<g>
		<path class="st1" d="M34.8,35.1H6.3c-4,0-7.2-2.9-7.2-6.4c0-3.5,3.3-6.4,7.2-6.4h28.5 M4.5,26.5h28.2 M4.5,30.8h28.2 M6,18h28.5
			c4,0,7.2-2.9,7.2-6.4c0-3.5-3.3-6.4-7.2-6.4H6 M36.2,9.6H8 M36.2,13.5H8 M12.5,0.6H34c3,0,5.5-2.6,5.5-5.8c0-3.2-2.5-5.8-5.5-5.8
			H12.5"/>
		<g>
			<path class="st1" d="M35.3-7.1H14 M35.3-3.3H14"/>
		</g>
	</g>
</g>
<g id="_x36_11fed14-f9ab-40a4-8e22-31d3d55a23dc" transform="matrix(0.7675853967666626,0,0,0.7675853967666626,52.11636767049094,249.29877980781367)">
	<path class="st0" d="M-0.3-54.1h0.8v-4.5h4.3v4.5h0.8v-9.2H4.9v4H0.6v-4h-0.8V-54.1z M18.1-54c2,0,3.5-1.9,3.5-4.8
		c0-2.9-1.4-4.7-3.5-4.7c-2,0-3.5,1.8-3.5,4.7C14.7-55.8,16.1-54,18.1-54z M18.1-54.7c-1.6,0-2.6-1.6-2.6-4.1c0-2.5,1.1-4,2.6-4
		c1.6,0,2.6,1.5,2.6,4C20.7-56.3,19.7-54.7,18.1-54.7z M33.5-54c2,0,3.5-1.9,3.5-4.8c0-2.9-1.4-4.7-3.5-4.7c-2,0-3.5,1.8-3.5,4.7
		C30.1-55.8,31.5-54,33.5-54z M33.5-54.7c-1.6,0-2.6-1.6-2.6-4.1c0-2.5,1.1-4,2.6-4c1.6,0,2.6,1.5,2.6,4
		C36.1-56.3,35.1-54.7,33.5-54.7z M46.3-54.1h0.8v-3.1l1.8-2.1l2.9,5.2h0.9l-3.3-5.8l3-3.4h-1l-4.3,4.9h0v-4.9h-0.8V-54.1z
		 M61.8-54.1h5.7v-0.7h-4.9v-3.8h4v-0.7h-4v-3.3h4.7v-0.7h-5.6V-54.1z M76.8-54.1H79c2.8,0,4.2-1.8,4.2-4.7c0-2.8-1.4-4.6-4.2-4.6
		h-2.1V-54.1z M77.6-54.8v-7.9h1.3c2.3,0,3.4,1.5,3.4,3.9c0,2.4-1.1,4-3.4,4H77.6z M108-54.1h0.9l1.2-4.2c0.2-0.5,0.3-1.1,0.4-1.6h0
		c0.1,0.5,0.2,1.1,0.4,1.6l1.2,4.2h1l1.4-9.3h-0.8l-0.9,6.1c-0.1,0.8-0.2,1.5-0.2,2.3h-0.1c-0.2-0.7-0.4-1.5-0.6-2.3l-1.1-3.7h-0.7
		l-1.1,3.7c-0.2,0.8-0.4,1.5-0.6,2.3h0c-0.1-0.7-0.2-1.5-0.3-2.3l-0.9-6.1h-0.8L108-54.1z M123.2-54.1h5.5v-0.7h-2.3v-7.8h2.3v-0.7
		h-5.5v0.7h2.3v7.8h-2.3V-54.1z M140.9-54.1h0.8v-8.5h3.1v-0.7h-7.1v0.7h3.1V-54.1z M153.7-54.1h0.8v-4.5h4.3v4.5h0.8v-9.2h-0.8v4
		h-4.3v-4h-0.8V-54.1z M184.9-54.1h2.6c2.1,0,3.4-0.9,3.4-2.7c0-1.3-0.8-2-2.2-2.2v-0.1c1.1-0.3,1.6-1.1,1.6-2
		c0-1.6-1.2-2.2-3.1-2.2h-2.4V-54.1z M185.7-59.3v-3.4h1.4c1.6,0,2.4,0.5,2.4,1.6c0,1.1-0.7,1.8-2.5,1.8H185.7z M185.7-54.8v-3.9
		h1.6c1.8,0,2.8,0.6,2.8,1.9c0,1.4-1.1,2-2.8,2H185.7z M202.9-54c2,0,3.5-1.9,3.5-4.8c0-2.9-1.4-4.7-3.5-4.7s-3.5,1.8-3.5,4.7
		C199.5-55.8,200.9-54,202.9-54z M202.9-54.7c-1.6,0-2.6-1.6-2.6-4.1c0-2.5,1.1-4,2.6-4c1.6,0,2.6,1.5,2.6,4
		C205.5-56.3,204.5-54.7,202.9-54.7z M218.3-54c2,0,3.5-1.9,3.5-4.8c0-2.9-1.4-4.7-3.5-4.7s-3.5,1.8-3.5,4.7
		C214.9-55.8,216.3-54,218.3-54z M218.3-54.7c-1.6,0-2.6-1.6-2.6-4.1c0-2.5,1.1-4,2.6-4c1.6,0,2.6,1.5,2.6,4
		C220.9-56.3,219.9-54.7,218.3-54.7z M231.1-54.1h0.8v-3.1l1.8-2.1l2.9,5.2h0.9l-3.3-5.8l3-3.4h-1l-4.3,4.9h0v-4.9h-0.8V-54.1z
		 M249.2-54c1.9,0,3.1-1.1,3.1-2.5c0-1.4-1-2-2.1-2.5l-1.4-0.6c-0.7-0.3-1.7-0.7-1.7-1.7c0-1,0.8-1.5,2-1.5c1,0,1.7,0.4,2.3,0.9
		l0.5-0.5c-0.6-0.6-1.6-1.1-2.8-1.1c-1.7,0-2.9,1-2.9,2.3c0,1.3,1.1,2,2,2.3l1.4,0.6c1,0.4,1.8,0.7,1.8,1.8c0,1-0.9,1.7-2.3,1.7
		c-1.1,0-2.1-0.5-2.8-1.2l-0.5,0.6C246.7-54.5,247.9-54,249.2-54z"/>
</g>
</svg>
